# xmcd CD database file
#
# Track frame offsets:
#	150
#	18515
#	35775
#	54140
#
# Disc length: 948 seconds
#
# Revision: 0
# Processed by: cddbd v1.5.1PL2 Copyright (c) Steve Scherf et al.
# Submitted via: CDex 1.51
#
DISCID=2a03b204
DTITLE=湧口愛美 - Smile.
DYEAR=2005
DGENRE=Pop
TTITLE0=Smile.
TTITLE1=Kissして
TTITLE2=Smile（instrumental）
TTITLE3=Kissして（instrumental）
EXTD=YEAR: 2005
EXTT0=
EXTT1=
EXTT2=
EXTT3=
PLAYORDER=
